<mxfile host="65bd71144e">
    <diagram id="DId9uxz7sm1LXZV5XANA" name="Page-1">
        <mxGraphModel dx="961" dy="1139" grid="1" gridSize="10" guides="1" tooltips="1" connect="1" arrows="1" fold="1" page="1" pageScale="1" pageWidth="850" pageHeight="1100" math="0" shadow="0">
            <root>
                <mxCell id="0"/>
                <mxCell id="1" parent="0"/>
                <mxCell id="13" style="edgeStyle=none;html=1;" parent="1" source="5" target="12" edge="1">
                    <mxGeometry relative="1" as="geometry"/>
                </mxCell>
                <mxCell id="5" value="Οθόνη μετακίνησης&lt;br&gt;ταξί" style="shape=umlBoundary;whiteSpace=wrap;html=1;" parent="1" vertex="1">
                    <mxGeometry x="40" y="210" width="100" height="80" as="geometry"/>
                </mxCell>
                <mxCell id="15" style="edgeStyle=none;html=1;entryX=0.5;entryY=1;entryDx=0;entryDy=0;endArrow=none;endFill=0;" parent="1" source="12" target="14" edge="1">
                    <mxGeometry relative="1" as="geometry"/>
                </mxCell>
                <mxCell id="17" value="" style="edgeStyle=none;html=1;" parent="1" source="12" target="16" edge="1">
                    <mxGeometry relative="1" as="geometry"/>
                </mxCell>
                <mxCell id="18" value="Επιτυχής" style="edgeLabel;html=1;align=center;verticalAlign=middle;resizable=0;points=[];" parent="17" vertex="1" connectable="0">
                    <mxGeometry x="-0.4011" y="1" relative="1" as="geometry">
                        <mxPoint x="13" y="1" as="offset"/>
                    </mxGeometry>
                </mxCell>
                <mxCell id="12" value="Έλεγχος ολοκλήρωσης μετακίνησης" style="ellipse;shape=umlControl;whiteSpace=wrap;html=1;" parent="1" vertex="1">
                    <mxGeometry x="240" y="200" width="90" height="100" as="geometry"/>
                </mxCell>
                <mxCell id="14" value="Database" style="ellipse;shape=umlEntity;whiteSpace=wrap;html=1;" parent="1" vertex="1">
                    <mxGeometry x="340" y="80" width="80" height="80" as="geometry"/>
                </mxCell>
                <mxCell id="20" value="" style="edgeStyle=none;html=1;entryX=0.5;entryY=1;entryDx=0;entryDy=0;endArrow=none;endFill=0;" parent="1" source="16" target="14" edge="1">
                    <mxGeometry relative="1" as="geometry">
                        <mxPoint x="460" y="160" as="targetPoint"/>
                    </mxGeometry>
                </mxCell>
                <mxCell id="24" value="" style="edgeStyle=none;html=1;" parent="1" source="16" target="21" edge="1">
                    <mxGeometry relative="1" as="geometry"/>
                </mxCell>
                <mxCell id="16" value="Ανάκτηση κόστους μετακίνησης" style="ellipse;shape=umlControl;whiteSpace=wrap;html=1;" parent="1" vertex="1">
                    <mxGeometry x="420" y="205" width="80" height="90" as="geometry"/>
                </mxCell>
                <mxCell id="27" value="" style="edgeStyle=none;html=1;" parent="1" source="21" target="26" edge="1">
                    <mxGeometry relative="1" as="geometry"/>
                </mxCell>
                <mxCell id="28" value="Κάρτα" style="edgeLabel;html=1;align=center;verticalAlign=middle;resizable=0;points=[];" parent="27" connectable="0" vertex="1">
                    <mxGeometry x="-0.44" y="1" relative="1" as="geometry">
                        <mxPoint as="offset"/>
                    </mxGeometry>
                </mxCell>
                <mxCell id="74" value="" style="edgeStyle=none;html=1;endArrow=none;endFill=0;" parent="1" source="21" target="73" edge="1">
                    <mxGeometry relative="1" as="geometry"/>
                </mxCell>
                <mxCell id="21" value="Έλεγχος τρόπου πληρωμής" style="ellipse;shape=umlControl;whiteSpace=wrap;html=1;" parent="1" vertex="1">
                    <mxGeometry x="575" y="205" width="80" height="90" as="geometry"/>
                </mxCell>
                <mxCell id="30" value="" style="edgeStyle=none;html=1;" parent="1" source="26" target="29" edge="1">
                    <mxGeometry relative="1" as="geometry"/>
                </mxCell>
                <mxCell id="32" value="" style="edgeStyle=none;html=1;" parent="1" source="26" target="31" edge="1">
                    <mxGeometry relative="1" as="geometry"/>
                </mxCell>
                <mxCell id="33" value="Επαρκές" style="edgeLabel;html=1;align=center;verticalAlign=middle;resizable=0;points=[];" parent="32" vertex="1" connectable="0">
                    <mxGeometry x="-0.363" y="1" relative="1" as="geometry">
                        <mxPoint x="-6" y="-1" as="offset"/>
                    </mxGeometry>
                </mxCell>
                <mxCell id="26" value="Έχει ο πελάτης επαρκές υπόλοιπο;" style="ellipse;shape=umlControl;whiteSpace=wrap;html=1;" parent="1" vertex="1">
                    <mxGeometry x="572.5" y="350" width="85" height="90" as="geometry"/>
                </mxCell>
                <mxCell id="29" value="Wallet" style="ellipse;shape=umlEntity;whiteSpace=wrap;html=1;" parent="1" vertex="1">
                    <mxGeometry x="710" y="230" width="80" height="80" as="geometry"/>
                </mxCell>
                <mxCell id="36" value="" style="edgeStyle=none;html=1;" parent="1" source="31" target="35" edge="1">
                    <mxGeometry relative="1" as="geometry"/>
                </mxCell>
                <mxCell id="39" value="" style="edgeStyle=none;html=1;" parent="1" source="31" target="38" edge="1">
                    <mxGeometry relative="1" as="geometry"/>
                </mxCell>
                <mxCell id="31" value="Αφαίρεση χρηματικού ποσού" style="ellipse;shape=umlControl;whiteSpace=wrap;html=1;" parent="1" vertex="1">
                    <mxGeometry x="580" y="520" width="70" height="80" as="geometry"/>
                </mxCell>
                <mxCell id="35" value="Wallet" style="ellipse;shape=umlEntity;whiteSpace=wrap;html=1;" parent="1" vertex="1">
                    <mxGeometry x="715" y="520" width="80" height="80" as="geometry"/>
                </mxCell>
                <mxCell id="41" value="" style="edgeStyle=none;html=1;endArrow=none;endFill=0;entryX=0.5;entryY=0;entryDx=0;entryDy=0;" parent="1" source="38" target="84" edge="1">
                    <mxGeometry relative="1" as="geometry"/>
                </mxCell>
                <mxCell id="76" value="" style="edgeStyle=none;html=1;endArrow=classic;endFill=1;entryX=0.983;entryY=0.49;entryDx=0;entryDy=0;entryPerimeter=0;" parent="1" source="38" target="75" edge="1">
                    <mxGeometry relative="1" as="geometry"/>
                </mxCell>
                <mxCell id="38" value="Υπολογσιμός πόντων" style="ellipse;shape=umlControl;whiteSpace=wrap;html=1;" parent="1" vertex="1">
                    <mxGeometry x="462.5" y="515" width="80" height="90" as="geometry"/>
                </mxCell>
                <mxCell id="40" value="TaxiService" style="ellipse;shape=umlEntity;whiteSpace=wrap;html=1;" parent="1" vertex="1">
                    <mxGeometry x="347.5" y="650" width="77.5" height="70" as="geometry"/>
                </mxCell>
                <mxCell id="45" value="" style="edgeStyle=none;html=1;entryX=0.5;entryY=0;entryDx=0;entryDy=0;" parent="1" source="42" target="43" edge="1">
                    <mxGeometry relative="1" as="geometry"/>
                </mxCell>
                <mxCell id="85" style="edgeStyle=none;html=1;entryX=1;entryY=0.575;entryDx=0;entryDy=0;entryPerimeter=0;" parent="1" source="42" target="46" edge="1">
                    <mxGeometry relative="1" as="geometry"/>
                </mxCell>
                <mxCell id="42" value="Ενημέρωση πόντων και υπολοίπου" style="ellipse;shape=umlControl;whiteSpace=wrap;html=1;" parent="1" vertex="1">
                    <mxGeometry x="235" y="520" width="70" height="80" as="geometry"/>
                </mxCell>
                <mxCell id="43" value="Database" style="ellipse;shape=umlEntity;whiteSpace=wrap;html=1;" parent="1" vertex="1">
                    <mxGeometry x="230" y="660" width="80" height="80" as="geometry"/>
                </mxCell>
                <mxCell id="49" value="" style="edgeStyle=none;html=1;" parent="1" source="46" target="48" edge="1">
                    <mxGeometry relative="1" as="geometry"/>
                </mxCell>
                <mxCell id="46" value="Εμφάνισε" style="ellipse;shape=umlControl;whiteSpace=wrap;html=1;" parent="1" vertex="1">
                    <mxGeometry x="25" y="520" width="70" height="80" as="geometry"/>
                </mxCell>
                <mxCell id="48" value="Αρχική οθόνη" style="shape=umlBoundary;whiteSpace=wrap;html=1;" parent="1" vertex="1">
                    <mxGeometry x="25" y="370" width="100" height="80" as="geometry"/>
                </mxCell>
                <mxCell id="51" style="edgeStyle=none;html=1;entryX=0.167;entryY=0.92;entryDx=0;entryDy=0;entryPerimeter=0;exitX=0.878;exitY=0.91;exitDx=0;exitDy=0;exitPerimeter=0;strokeColor=#b85450;fillColor=#f8cecc;strokeWidth=2;" parent="1" source="12" target="12" edge="1">
                    <mxGeometry relative="1" as="geometry">
                        <Array as="points">
                            <mxPoint x="340" y="330"/>
                            <mxPoint x="319" y="360"/>
                            <mxPoint x="260" y="360"/>
                            <mxPoint x="240" y="330"/>
                        </Array>
                    </mxGeometry>
                </mxCell>
                <mxCell id="52" value="Ανεπιτυχής" style="edgeLabel;html=1;align=center;verticalAlign=middle;resizable=0;points=[];" parent="51" vertex="1" connectable="0">
                    <mxGeometry x="-0.1154" y="3" relative="1" as="geometry">
                        <mxPoint x="-14" as="offset"/>
                    </mxGeometry>
                </mxCell>
                <mxCell id="54" value="Μετρητά" style="edgeStyle=none;html=1;fillColor=#f8cecc;strokeColor=#b85450;strokeWidth=2;exitX=0.113;exitY=0.867;exitDx=0;exitDy=0;exitPerimeter=0;" parent="1" source="21" target="46" edge="1">
                    <mxGeometry relative="1" as="geometry">
                        <mxPoint x="575.001329900265" y="289.9987000974852" as="sourcePoint"/>
                        <mxPoint x="467.87" y="394" as="targetPoint"/>
                    </mxGeometry>
                </mxCell>
                <mxCell id="55" value="Ανεαρκές" style="edgeStyle=none;html=1;fillColor=#f8cecc;strokeColor=#b85450;strokeWidth=2;exitX=1.018;exitY=0.522;exitDx=0;exitDy=0;exitPerimeter=0;entryX=0.5;entryY=0.013;entryDx=0;entryDy=0;entryPerimeter=0;" parent="1" source="26" target="58" edge="1">
                    <mxGeometry relative="1" as="geometry">
                        <mxPoint x="1183.8600000000001" y="490" as="sourcePoint"/>
                        <mxPoint x="680" y="720" as="targetPoint"/>
                        <Array as="points">
                            <mxPoint x="850" y="397"/>
                            <mxPoint x="850" y="640"/>
                            <mxPoint x="680" y="640"/>
                        </Array>
                    </mxGeometry>
                </mxCell>
                <mxCell id="57" style="edgeStyle=none;html=1;strokeColor=#B85450;strokeWidth=2;entryX=0.986;entryY=0.45;entryDx=0;entryDy=0;entryPerimeter=0;" parent="1" source="58" target="86" edge="1">
                    <mxGeometry relative="1" as="geometry">
                        <mxPoint x="580" y="750" as="targetPoint"/>
                    </mxGeometry>
                </mxCell>
                <mxCell id="58" value="Αφαίρεση χρηματικού ποσού" style="ellipse;shape=umlControl;whiteSpace=wrap;html=1;strokeColor=#B85450;strokeWidth=2;" parent="1" vertex="1">
                    <mxGeometry x="645" y="730" width="70" height="80" as="geometry"/>
                </mxCell>
                <mxCell id="60" value="Μήνυμα σφάλματος" style="shape=umlBoundary;whiteSpace=wrap;html=1;fillColor=none;strokeColor=#b85450;strokeWidth=2;" parent="1" vertex="1">
                    <mxGeometry x="225" y="770.0000000000002" width="90" height="70" as="geometry"/>
                </mxCell>
                <mxCell id="68" value="Εμφάνισε" style="ellipse;shape=umlControl;whiteSpace=wrap;html=1;strokeColor=#B85450;strokeWidth=2;" parent="1" vertex="1">
                    <mxGeometry x="380" y="765" width="70" height="80" as="geometry"/>
                </mxCell>
                <mxCell id="71" style="edgeStyle=none;html=1;entryX=1.044;entryY=0.543;entryDx=0;entryDy=0;entryPerimeter=0;strokeColor=#B85450;strokeWidth=2;exitX=-0.043;exitY=0.513;exitDx=0;exitDy=0;exitPerimeter=0;" parent="1" source="68" target="60" edge="1">
                    <mxGeometry relative="1" as="geometry">
                        <mxPoint x="468.01" y="840" as="targetPoint"/>
                        <mxPoint x="520" y="840" as="sourcePoint"/>
                    </mxGeometry>
                </mxCell>
                <mxCell id="72" style="edgeStyle=none;html=1;entryX=0.471;entryY=1.038;entryDx=0;entryDy=0;entryPerimeter=0;strokeColor=#B85450;strokeWidth=2;exitX=-0.056;exitY=0.457;exitDx=0;exitDy=0;exitPerimeter=0;" parent="1" source="60" target="46" edge="1">
                    <mxGeometry relative="1" as="geometry">
                        <mxPoint x="263.49" y="761.9700000000003" as="targetPoint"/>
                        <mxPoint x="306.52" y="760" as="sourcePoint"/>
                        <Array as="points">
                            <mxPoint x="58" y="770"/>
                        </Array>
                    </mxGeometry>
                </mxCell>
                <mxCell id="73" value="Service" style="ellipse;shape=umlEntity;whiteSpace=wrap;html=1;" parent="1" vertex="1">
                    <mxGeometry x="575" y="80" width="80" height="80" as="geometry"/>
                </mxCell>
                <mxCell id="78" style="edgeStyle=none;html=1;entryX=0.5;entryY=0;entryDx=0;entryDy=0;endArrow=classic;endFill=1;" parent="1" source="75" target="40" edge="1">
                    <mxGeometry relative="1" as="geometry"/>
                </mxCell>
                <mxCell id="79" style="edgeStyle=none;html=1;entryX=0.5;entryY=1;entryDx=0;entryDy=0;endArrow=classic;endFill=1;" parent="1" source="75" target="77" edge="1">
                    <mxGeometry relative="1" as="geometry"/>
                </mxCell>
                <mxCell id="80" style="edgeStyle=none;html=1;entryX=1.057;entryY=0.491;entryDx=0;entryDy=0;entryPerimeter=0;endArrow=classic;endFill=1;" parent="1" source="75" target="42" edge="1">
                    <mxGeometry relative="1" as="geometry"/>
                </mxCell>
                <mxCell id="75" value="Προσθήκη πόντων" style="ellipse;shape=umlControl;whiteSpace=wrap;html=1;" parent="1" vertex="1">
                    <mxGeometry x="345" y="515" width="80" height="90" as="geometry"/>
                </mxCell>
                <mxCell id="77" value="Customer" style="ellipse;shape=umlEntity;whiteSpace=wrap;html=1;" parent="1" vertex="1">
                    <mxGeometry x="400" y="400" width="77.5" height="80" as="geometry"/>
                </mxCell>
                <mxCell id="84" value="Points" style="ellipse;shape=umlEntity;whiteSpace=wrap;html=1;" parent="1" vertex="1">
                    <mxGeometry x="465" y="640" width="77.5" height="70" as="geometry"/>
                </mxCell>
                <mxCell id="86" value="Ενημέρωση πορτοφολιού" style="ellipse;shape=umlControl;whiteSpace=wrap;html=1;strokeColor=#B85450;strokeWidth=2;" vertex="1" parent="1">
                    <mxGeometry x="510" y="765" width="70" height="80" as="geometry"/>
                </mxCell>
                <mxCell id="87" value="Database" style="ellipse;shape=umlEntity;whiteSpace=wrap;html=1;strokeColor=#b85450;strokeWidth=2;" vertex="1" parent="1">
                    <mxGeometry x="505" y="880" width="80" height="80" as="geometry"/>
                </mxCell>
                <mxCell id="88" style="edgeStyle=none;html=1;strokeColor=#B85450;strokeWidth=2;entryX=0.5;entryY=0;entryDx=0;entryDy=0;exitX=0.529;exitY=1.025;exitDx=0;exitDy=0;exitPerimeter=0;" edge="1" parent="1" source="86" target="87">
                    <mxGeometry relative="1" as="geometry">
                        <mxPoint x="589.02" y="811" as="targetPoint"/>
                        <mxPoint x="656.2206309373043" y="790.4716044094357" as="sourcePoint"/>
                    </mxGeometry>
                </mxCell>
                <mxCell id="89" style="edgeStyle=none;html=1;strokeColor=#B85450;strokeWidth=2;entryX=1;entryY=0.65;entryDx=0;entryDy=0;entryPerimeter=0;exitX=-0.043;exitY=0.588;exitDx=0;exitDy=0;exitPerimeter=0;" edge="1" parent="1" source="86" target="68">
                    <mxGeometry relative="1" as="geometry">
                        <mxPoint x="395.29999999999995" y="865.53" as="targetPoint"/>
                        <mxPoint x="462.5006309373043" y="845.0016044094357" as="sourcePoint"/>
                    </mxGeometry>
                </mxCell>
            </root>
        </mxGraphModel>
    </diagram>
</mxfile>